<mxfile host="65bd71144e">
    <diagram id="HIP3nbAZw_EuaXWnEj3U" name="Page-1">
        <mxGraphModel dx="606" dy="563" grid="1" gridSize="10" guides="1" tooltips="1" connect="1" arrows="1" fold="1" page="1" pageScale="1" pageWidth="850" pageHeight="1100" math="0" shadow="0">
            <root>
                <mxCell id="0"/>
                <mxCell id="1" parent="0"/>
                <mxCell id="7" value="http://ics2o.mths.ca" style="swimlane;whiteSpace=wrap;html=1;" parent="1" vertex="1">
                    <mxGeometry x="40" y="40" width="760" height="480" as="geometry"/>
                </mxCell>
                <mxCell id="8" value="" style="shape=image;verticalLabelPosition=bottom;labelBackgroundColor=default;verticalAlign=top;aspect=fixed;imageAspect=0;image=data:image/png,iVBORw0KGgoAAAANSUhEUgAAAT4AAACfCAMAAABX0UX9AAABOFBMVEX///81y8KgzlX/lT/12jvwZ6v/l0A2zsWj0Vj39/fQ0ND8/PzwZaqkpKTCwsL9/vudnZ3g4ODv7++cy0/X19f8kTqVxUaqqqr99vD89fnrXqTlVp3+/fbbvgDx1TItxr3y+vmYmJjm5ua4uLj22sblbgD2hiiMvTrg6tHWRo/V4sDp8N359eDgyVgRsKcAoJgat66s2NXH5ePrrIHzzrXuu5n669/RUpD2hyvRYJfZh67y2OTww6X24+zw0uDdlri1zZLpvdGCsTKSt1nkikp4qxzI2q3jrMagwHK4z5eNtkzt4aXdwiny6b7n14dWtK6LyMTd8e/v5K56wr1TsqzgcxjheSTml1/igDbponLVdKPkhkTPMILfob7QW5SbvWmFsT3k0HDgyEj17s7XuxvfyVTo2o/k0ne0BC1JAAANrUlEQVR4nO2cC1faThPGqb5FIQKCImgTRBEURVBRxFtVBOutXqqA2n+rYmu//zd4d5OA2c2F3WBgCTzHw+lFYvid2ZnZZzY6HH311VdffXVavrmNYjkeL1equ7lO30vXKZetxBP5IFQ+ES+u+zp9Q92kXDWeCDoHnc7BQfjiDCbu1zt9T12jcDaeGETlHEwU+0uYSHP38aBzEJczX57r9J11g9bL+UE1PRiA8f4CbqrdeFCDnaR4P/6aaCOhGXpS/AUr4U7fH9vaiOuGHuSXyHb6BtlWNqEbeyK/eL/8Gil8r1F0++FHrPW4YfgFy72T/bi9Sfo3PSg7ZqcTg+nsneI7uZ3cfPx1SMkwVwnW0cHdbgJdzL2zeve2kiOfp74kk1vb33YoEO4mpJ1uMH6f3V3PVtBiki9ad8csaWfzy2dRIxDh5uM30jeGi3mY5OL3u2KaCz8g/ILlnvBeviVlejLD5DbxW+fKIMjKG40aUc0rwy/eA7Vj5xEsXETJQ/J3ZxOJn4r+LocUY/t3fnvbaOiJ+PbI3x++ryIhVlXsgu1eermvAN4ITm9kk6O4Rg5doNW8szfw7R3ub2nA+/z5y6P5i/oqSONn48W7/58WO7h2iQuvWnPK3GdrfIdJTXgA3475ixaRyluxcePyVQffyKaJ7ZusLFJ48w8feLusaQ/vV2RNmU99qAPoTNjZsJ/c1Mb35ZfJC/qy6NjIaWvHhdPBl/xq7nq5IuY+29wxeJzSTH00TfO7fLvlPGpYmQ8+X1dUnG1xuzHyBd11TG2ZudZcEZ/3OhMb9Jfx8QuLpydnB2Zuod36lYQe1e8ttAJ/2ae/Uu5BPSwP3lPFEL+0cHxwclYoleYnJo7ob6H9+vpfcmv/K/cLjT4av0BSeKOSwJ1mSrvg4AmAm5+fGBsYHh4YGHjuhtW792sHbm6xFEid+uZ+agwsnXSnDI7q4EQNl5Yo76FzwvqXkd90TbNvI57XGBjF6RLfwcSAQsOlBap3d1J7WOojt0qhwhpZD9rPlGXjeH5YiW/+mO7tHRS29aXzC8J4rycu3GB8l/ImFkpKfAPzp5Tv75z2scpB4xeEi2VV6DkHExVqm49H8U2c0F6gY0IrB5VfEC5qHNMIxqv07bLvWUlvYOyM+godElY5aPwCX1Vj5eZp056kozGEX6EbOheoHaxyUPgFDyp6IOuZPJaLl95u6Vy+YZWD3C/QOJ+WL5sKPYeq9HZN57KNjng3iZvmdRU9kPVMm/No6e2ezmULqRzkfsGcyiLIl2nbFYWWsM7lwPyl2qk9tHIQ+wW5Mnqq2TloNutJwkrvxFML12qjsIEHqV8Q/onu1EDNaNEbRUvv2Fl3lF68chCmvix2MDJYbnWscYKU3oEC3+L12iOschD6BfjSzZdbHujipbcrOpdJtHKQ+gVz2Dm+SuvjcKz0lhZV3+FbWjx9OmMqKvfM+QXr6DG+D6CHlV60c4HgTp5L0IguMNUQ4pWD0C/YSKBL9776sLGea20sWUBNgwPxH0VwZyXRiB4eHgZY1VHZQf1C8BH7BVnkKAboWuDJ5ni8/LOa3Z0ziREtvRNP7+AGhhtG9DBbVtYjUjmI/YKq1lOUQEEJY6UIgpEWI156MXB1rCxZWZjdQuoX+Iq6TwI6xecTAEWIkSoloqVXDa7eEJr5nBYJrxyEfkH4Xv9BSgVFijE5yHEHBU1euJ4ZKr2H5lJfrtKEniSiQa9vaeFYGu+ONWcHFzVDDeG+udSXyzdnB/qZqvFVZHCFgjTeJYo9gI+hzgU16on9gjnjRynl9Wtwug+eKDh7LsxTgRPFkpWFVQ5iqxR0zepTBSp8emdclo5MgZPFkJWFGvXkR6t2QVVNJPJBjccAlfh0XISlEggiem6yGLKy0MoxtUX8PEI4t7678VCslCWMQdjz4Rx1n0rgn5tD0hdDVhZaOSjPFwBxMsZ7BKOzjk+n7fMdkdVYHbFTetHKQX+0SpYPYJxb33io/hTDEWAcNGz7sP0FuUCyHB5jZoqEVg6Tp0qV8kGMu9mqFI73et+G7S8IuQ2MTcyXSoWzI1aiD6sclEerDAQwglWt6z8vkO0v6uAgt3nA7engeHGJZ+fgLlo56FOfWS2R4atze346OV5cWGIGW12oUd/Ko1h04s+Iakfh+ejkFHBjaJOLCDXqzT6PYEJPmviwLnq4wF7AKYU+VdTKo1i0OpjAwYF1CgpDAcPXthsyI9Sob+FRLGrVS69YFxQJ7lkZlYz58iqhI14zzyOY1cK8gpuY4HgeLtSnCQQfO+aAlrDKYbZpNiG+MF+A3A6OQWFQJLhTpCFkypdX6zdSOciPVrUu36nYwan+fREZVo49sVw69sz6BdYJO2bFjjmgoZ3NZHKqUXvb1zQbyFfqotI7ufNt+3dS/mUQ7Ux9+kJLL0u+vLYm9w5FhFOt+wUfIaz0st25yAIIH38/tq9pNtDpPIKPqRMFRppkgh5WehnvXNjTEta5dPp+ukxo6WW7c2FRWOllunNhUMgYpAs6F8aEld6u6FyaihfVjkS0iPj4jHsuREqdv9QugGrLl98t982XbNa5vL4IQiTyP6BIRBAuLlPW/jgeKb1jR91delPLgoiuLkDwzdoIRKdILJ2FpNc5Ck+UULM0ALHS28WdC78sqODBCLx4tfCHoqWXmQMZ9ErVNOlBfhbG32Ldr4dTyzGNZ4u6RKk/6oVb51ezLiWB0isfyygUnp+ZOc9Cq9SFLj2Q//5Z9nP5kmKK1LWFg9dbuTK/75b9ZO0hUpfpnyG9/0WWu/4TWqnvxvRA+FlZfbteTfFFLjt9i0yrGT8ri68dpOQXEf5cCNgGxMrezw76ITTgvbzyvtQPtJPpJ78mOhdkenKT4ltW8rOwdbGJ3iC/yJ/GKuWV8dfH11SXgpJeIx4J8N1cra5FLb479vVPQFJc6oIU3206nclkbldvLL5BxvWCbm5rpKUjMz009Gl6BTC8u17rcYYN8Qp8xo1LZugT0FCd4dV1fylDD4uwbb6R8H1qMJSXcrRdd8qkFKXDeNO2mn7HJzOsL+XVGwZOsXZESgvQOPVdr3zSUG8v5e8K+zny19CwupvWwqdkeHfbS50Nn3qrKTe9xsHHZYZ08dURygx7IB3+qNUu5FF5nd6b4Rtu8NSnH4ZpuJTt3dm8qcwr4cXQrlpdIcAnIZSWctrOmxQN709YNuJ3q5/6enAppzSsU8OzBnc09NClDDcpNutseC3nOfJXN/6imWmIwwTDT+JSXm3nh2uDLjTwGcx6o9dXmUx6ZXrIHMP0Wjs/Wxu0rDkxF37ovyN6s3qbhgjpw3AoE23bB2uP3jTxNTvqAhHe0SOcvmvTp2qbdMZukeZHNbibNbCSaRAOrVy34RO1Va8CPFiqGrYRjou46NrqVTotMiTAZ7vU5+BrL+ffU6nU6yV21pT8pJC4ktMEYTiUsd8epNGjYMv4gmpWDhBeN0+GmY+/fXb00uKwF6zka7iSdRFO31px26zoFQm/yLn6O6LNd14gGdZXsjr12a1pRlVThp+W53wt+qFNGeokQzumPqX+Ifhe1N9wNy1tXgn8UJgMrzCEGZvteDFdNsEXzXyqb16JTBSflAxXpqU9nu2aZqy4vjTB1xiyDckM01fXTRk2kqHtmmb+AtnaphD7QKPxW0OcZtnLS9/dXq9Fo4Y/SEqGGZs1zeeCcPkegPxftG9WV16NIVvDy4NL2TC1AYTRD/8EnRT0+iIX3+W5Gv6ckcZBlysdp1lmSLKUbSTpkJrw90eK5/kfNWzTq/ZcuLT+fqKeDjNwKfcEw7rRHBEEcdyG0tN4PKH5kO09HbYShrMB+Q+uACe+mr6SlVK0KRGNhyvVqW+NZEZpbilz4++MuFGv/Cf/jAu8ukddrX5UC6Q1JFIEn4Zfqn08w5Dh3RXZeCgw6nZwnPw1PgteOZeEj2vgc7kar5zDxcl/75T+GTzXpj0s16sc+gwbS3nNuCpzMY/H7405wJc75oi5HTFvDMQgwOcOBSR8nNfj8XLSayDkDcVmQ6FZi9AQ6LVJ8KntKi5tZjxUT4dXt0Yb3nFPzDXucYXAl9sR8jpCgOaMyz/qnhmXo8896naD7wGvo+OB0Zh7NDbu8Rpc0WL9NQ4+jeO5UdHOI3GVNRkaNs0uj9sR8Ix7wNesiM/rmJ2Z9Y/CNCjhC8Xg98XAa8wbGPVzgF0sZg0aAhkHn/Y5F2m2kZ4mMuZVBA2HbBAfFwvFYqEQp8TniTXwiaEm4osBfPANHcSn8zC+TE//fOS7F0XL0NBphjTE9QnDTYHPLy1el98R8wRcsw6vx+UKeTuPz+G71PhVEFLea3LGSjGlpEBo7DRzoVE/AOb3z/hFfB4J34zLOxPwz7jBa8AD5BJfAyK+ji5eoFftp6IjfwxG5O8CK5kGYTOn2QUaP84PwowT22bw5RL/xvkDoJEJuDlHwO0GvaH4Cv4L/vtsBysvkO9N/SsNIsIL+fOAcEqZIRmx2dRp5i/RzRrYANM+j0V63sCeQzb+vCZE4J4NvAh/lk0+zNYc4fTVx943O3qVfg1Y7eW8pcd4G8lQC6HtnGZU/Mf8XhDxyEYmDWcbeOWwmdNsmRTJUFk5op2+r26SaiXbbchmvaLv59eGVmx9PMMycWAlZ0AytPnxDEsFEdqwae6rr776Ykn/B5YKNXCFrHSNAAAAAElFTkSuQmCC;" vertex="1" parent="7">
                    <mxGeometry x="442" y="100" width="318" height="159" as="geometry"/>
                </mxCell>
                <mxCell id="9" value="Add your number" style="whiteSpace=wrap;html=1;" vertex="1" parent="7">
                    <mxGeometry y="20" width="760" height="40" as="geometry"/>
                </mxCell>
                <mxCell id="10" value="&lt;font style=&quot;font-size: 26px;&quot;&gt;But your Number&lt;/font&gt;" style="text;html=1;align=center;verticalAlign=middle;resizable=0;points=[];autosize=1;strokeColor=none;fillColor=none;" vertex="1" parent="7">
                    <mxGeometry y="80" width="220" height="40" as="geometry"/>
                </mxCell>
                <mxCell id="11" value="&lt;font style=&quot;font-size: 12px;&quot;&gt;Get the number&lt;/font&gt;" style="text;html=1;align=center;verticalAlign=middle;resizable=0;points=[];autosize=1;strokeColor=none;fillColor=none;fontSize=26;" vertex="1" parent="7">
                    <mxGeometry y="150" width="110" height="40" as="geometry"/>
                </mxCell>
                <mxCell id="12" value="" style="whiteSpace=wrap;html=1;fontSize=12;" vertex="1" parent="7">
                    <mxGeometry x="30" y="190" width="90" height="20" as="geometry"/>
                </mxCell>
                <mxCell id="14" value="Get your Number" style="rounded=1;whiteSpace=wrap;html=1;fontSize=12;" vertex="1" parent="7">
                    <mxGeometry x="10" y="240" width="120" height="30" as="geometry"/>
                </mxCell>
                <mxCell id="15" value="Answer" style="text;html=1;align=center;verticalAlign=middle;resizable=0;points=[];autosize=1;strokeColor=none;fillColor=none;fontSize=12;" vertex="1" parent="7">
                    <mxGeometry x="45" y="290" width="60" height="30" as="geometry"/>
                </mxCell>
            </root>
        </mxGraphModel>
    </diagram>
</mxfile>